<svg width="24" height="25" viewBox="0 0 24 25" fill="none" xmlns="http://www.w3.org/2000/svg">
<g clip-path="url(#clip0_11_671)">
<path d="M11.9907 6.10174C13.2577 6.09962 14.4968 6.47339 15.5512 7.17572C16.6055 7.87804 17.4277 8.87733 17.9136 10.0471C18.3995 11.2168 18.5273 12.5044 18.2807 13.7467C18.0341 14.9891 17.4243 16.1304 16.5285 17.0261C15.6327 17.9218 14.4912 18.5316 13.2485 18.7783C12.0057 19.0251 10.7177 18.8976 9.5475 18.4121C8.37728 17.9266 7.37747 17.1049 6.6747 16.0511C5.97192 14.9972 5.59777 13.7586 5.59962 12.492C5.60438 10.7989 6.2792 9.17646 7.47669 7.97913C8.67417 6.7818 10.297 6.10685 11.9907 6.10174Z" fill="black" fill-opacity="0.8"/>
<path d="M20.6123 21.7015C19.9122 21.7015 19.2121 21.7015 18.512 21.7015C18.1384 21.7015 18.0033 21.5678 18.0033 21.1876C18.0033 19.7964 18.0033 18.4051 18.0033 17.0139C18.0033 16.808 18.0368 16.6303 18.2453 16.5381C18.4679 16.4392 18.625 16.5501 18.7741 16.7018C19.113 17.0459 19.4599 17.3827 19.7968 17.7295C19.9017 17.8378 19.9566 17.8799 20.0608 17.7155C21.2152 15.8919 21.7413 13.9106 21.5689 11.7543C21.3723 9.30254 20.3777 7.22034 18.5983 5.5304C16.9799 3.99348 15.0434 3.13548 12.8148 2.94236C11.2408 2.8024 9.65677 3.05687 8.20588 3.68275C7.85361 3.8331 7.68382 3.77096 7.51604 3.43819C7.30347 3.0152 7.09024 2.59221 6.88436 2.16856C6.73931 1.87053 6.80882 1.68008 7.11163 1.54577C8.91656 0.725924 10.9012 0.380891 12.877 0.54343C16.4198 0.832104 19.2941 2.38974 21.494 5.17423C22.8362 6.86635 23.6743 8.90224 23.9124 11.0486C24.2721 14.1037 23.5508 16.8916 21.7981 19.4141C21.6985 19.5578 21.6878 19.634 21.8209 19.7603C22.2313 20.1512 22.623 20.5621 23.0281 20.9577C23.1671 21.0954 23.2587 21.2451 23.1778 21.4469C23.0969 21.6487 22.9245 21.7088 22.7146 21.7075C22.0127 21.6981 21.3122 21.7015 20.6123 21.7015Z" fill="black" fill-opacity="0.8"/>
<path d="M3.38706 3.30187C4.09494 3.30187 4.8035 3.30187 5.51206 3.30187C5.85497 3.30187 5.99802 3.4442 5.99802 3.787C5.99802 5.19495 5.99802 6.6029 5.99802 8.01086C5.99802 8.22135 5.94387 8.38907 5.73465 8.4726C5.52543 8.55613 5.38371 8.4579 5.24601 8.31958C4.89374 7.96475 4.53411 7.61727 4.18786 7.25643C4.07422 7.13815 4.02743 7.1455 3.9392 7.28249C3.19233 8.41921 2.70339 9.70558 2.50671 11.0513C2.14106 13.6193 2.67917 15.9895 4.2039 18.0957C5.81553 20.3222 8.0047 21.6293 10.734 22.0095C12.4646 22.2507 14.1344 22.0095 15.7473 21.3413C16.1778 21.1622 16.3055 21.2077 16.5154 21.6273C16.7092 22.0135 16.9058 22.3978 17.0976 22.7847C17.2714 23.1355 17.2052 23.3273 16.8516 23.481C15.0248 24.2741 13.1197 24.6169 11.1304 24.4653C8.20189 24.2401 5.67917 23.0994 3.58826 21.0473C1.60297 19.0994 0.425156 16.7279 0.0929365 13.9607C-0.274042 10.8989 0.449219 8.10107 2.21459 5.57384C2.31486 5.43084 2.29681 5.35867 2.18184 5.24707C1.78077 4.85884 1.39174 4.45857 0.99334 4.06699C0.848286 3.92465 0.740664 3.77431 0.82422 3.56047C0.907776 3.34664 1.0916 3.29786 1.31152 3.29986C2.00336 3.30521 2.69521 3.30187 3.38706 3.30187Z" fill="black" fill-opacity="0.8"/>
<path d="M11.5996 16.4786C11.6872 16.198 11.5455 16.0576 11.2139 15.924C10.4646 15.622 10.0695 15.0145 10.0053 14.2067C9.98195 13.908 10.127 13.7295 10.3757 13.7128C10.6243 13.6961 10.7767 13.8625 10.8021 14.1559C10.8543 14.8475 11.3844 15.3286 12.0642 15.3012C12.3711 15.2856 12.6603 15.1526 12.8719 14.9296C13.0834 14.7067 13.2011 14.411 13.2005 14.1037C13.2005 13.4355 12.6858 12.9263 11.99 12.9009C10.9512 12.8642 10.1531 12.1505 10.0127 11.1341C9.88436 10.1986 10.4766 9.30187 11.4372 8.99583C11.5789 8.95039 11.6096 8.88423 11.6029 8.75059C11.5929 8.53475 11.5949 8.31757 11.6029 8.10107C11.611 7.85449 11.76 7.70615 11.9893 7.70013C12.2299 7.69479 12.3904 7.84581 12.3991 8.10107C12.4108 8.30136 12.4108 8.50218 12.3991 8.70247C12.3857 8.87822 12.4405 8.95373 12.6176 9.00852C13.4271 9.25911 14.0053 10.0463 14.002 10.8622C14.002 11.1428 13.8603 11.3025 13.609 11.3052C13.3576 11.3079 13.2213 11.1656 13.2025 10.8749C13.1598 10.2193 12.6878 9.73422 12.0662 9.70415C11.9081 9.69656 11.7501 9.72034 11.6012 9.7741C11.4524 9.82786 11.3156 9.91055 11.1989 10.0174C11.0822 10.1242 10.9878 10.2531 10.9211 10.3966C10.8544 10.5401 10.8168 10.6954 10.8105 10.8535C10.8041 11.0115 10.8291 11.1693 10.8841 11.3177C10.939 11.4661 11.0228 11.6021 11.1306 11.718C11.2384 11.8338 11.368 11.9272 11.5121 11.9927C11.6561 12.0582 11.8117 12.0946 11.9699 12.0997C13.1684 12.1525 14.0234 13.0125 14.0047 14.1472C13.9965 14.5621 13.8581 14.9639 13.6089 15.2959C13.3598 15.6278 13.0125 15.873 12.6163 15.9968C12.4358 16.053 12.389 16.1345 12.4017 16.3055C12.4158 16.488 12.4084 16.6724 12.4017 16.8555C12.3957 17.1375 12.2513 17.2979 12.006 17.3005C11.7607 17.3032 11.6103 17.1435 11.6049 16.8649C11.5976 16.7579 11.5996 16.649 11.5996 16.4786Z" fill="#FEFEFE"/>
</g>
<defs>
<clipPath id="clip0_11_671">
<rect width="24" height="24" fill="white" transform="translate(0 0.5)"/>
</clipPath>
</defs>
</svg>
